<svg width="1600" height="1200" viewBox="0 0 1600 1200" fill="none" xmlns="http://www.w3.org/2000/svg">
  <defs>
    <linearGradient id="bg" x1="0" y1="0" x2="1600" y2="1200" gradientUnits="userSpaceOnUse">
      <stop stop-color="#EEF6FF"/>
      <stop offset="1" stop-color="#F8FAFC"/>
    </linearGradient>
    <filter id="shadow" x="-20%" y="-20%" width="140%" height="140%">
      <feDropShadow dx="0" dy="18" stdDeviation="18" flood-color="#0F172A" flood-opacity="0.10"/>
    </filter>
  </defs>

  <rect width="1600" height="1200" fill="url(#bg)"/>
  <text x="90" y="96" fill="#0F172A" font-size="42" font-weight="800" font-family="Pretendard, Apple SD Gothic Neo, sans-serif">TMAP Clone Web 페이지 보드</text>
  <text x="90" y="136" fill="#475569" font-size="20" font-weight="500" font-family="Pretendard, Apple SD Gothic Neo, sans-serif">링크드인 1차 공유용으로 홈, 검색, 즐겨찾기, 더보기 4개 화면을 한 장에 정리</text>

  <g filter="url(#shadow)">
    <rect x="90" y="210" width="320" height="760" rx="34" fill="#111827"/>
    <rect x="104" y="224" width="292" height="732" rx="26" fill="#F8FAFC"/>
    <text x="130" y="270" fill="#0F172A" font-size="28" font-weight="800" font-family="Pretendard, Apple SD Gothic Neo, sans-serif">홈</text>
    <rect x="126" y="292" width="248" height="270" rx="22" fill="#DCEEFF"/>
    <path d="M140 358C194 330 240 337 282 354C321 369 346 364 370 346" stroke="#2563EB" stroke-width="11" stroke-linecap="round"/>
    <rect x="140" y="308" width="220" height="38" rx="14" fill="white"/>
    <rect x="126" y="596" width="248" height="280" rx="22" fill="white"/>
    <rect x="142" y="618" width="64" height="26" rx="13" fill="#F1F5F9"/>
    <rect x="212" y="618" width="64" height="26" rx="13" fill="#F1F5F9"/>
    <rect x="282" y="618" width="74" height="26" rx="13" fill="#F1F5F9"/>
    <rect x="142" y="664" width="216" height="42" rx="16" fill="#F1F5F9"/>
    <rect x="142" y="720" width="216" height="28" rx="12" fill="#ECFDF5"/>
    <rect x="142" y="780" width="64" height="48" rx="16" fill="#DBEAFE"/>
    <rect x="216" y="780" width="64" height="48" rx="16" fill="#F8FAFC"/>
    <rect x="290" y="780" width="64" height="48" rx="16" fill="#F8FAFC"/>
    <text x="130" y="914" fill="#475569" font-size="15" font-weight="600" font-family="Pretendard, Apple SD Gothic Neo, sans-serif">지도 + 빠른검색 + 도로탐색</text>
  </g>

  <g filter="url(#shadow)">
    <rect x="450" y="210" width="320" height="760" rx="34" fill="#111827"/>
    <rect x="464" y="224" width="292" height="732" rx="26" fill="white"/>
    <text x="490" y="270" fill="#0F172A" font-size="28" font-weight="800" font-family="Pretendard, Apple SD Gothic Neo, sans-serif">검색</text>
    <rect x="488" y="302" width="244" height="38" rx="14" fill="#F1F5F9"/>
    <rect x="488" y="382" width="110" height="60" rx="18" fill="#F8FAFC"/>
    <rect x="622" y="382" width="110" height="60" rx="18" fill="#F8FAFC"/>
    <rect x="488" y="486" width="72" height="64" rx="18" fill="#DBEAFE"/>
    <rect x="574" y="486" width="72" height="64" rx="18" fill="#F8FAFC"/>
    <rect x="660" y="486" width="72" height="64" rx="18" fill="#F8FAFC"/>
    <rect x="488" y="566" width="72" height="64" rx="18" fill="#F8FAFC"/>
    <rect x="574" y="566" width="72" height="64" rx="18" fill="#F8FAFC"/>
    <rect x="660" y="566" width="72" height="64" rx="18" fill="#F8FAFC"/>
    <rect x="488" y="682" width="244" height="62" rx="18" fill="white" stroke="#E2E8F0"/>
    <rect x="488" y="756" width="244" height="62" rx="18" fill="white" stroke="#E2E8F0"/>
    <rect x="488" y="830" width="244" height="62" rx="18" fill="white" stroke="#E2E8F0"/>
    <text x="490" y="914" fill="#475569" font-size="15" font-weight="600" font-family="Pretendard, Apple SD Gothic Neo, sans-serif">주소검색 + 최근검색 + 주변POI</text>
  </g>

  <g filter="url(#shadow)">
    <rect x="810" y="210" width="320" height="760" rx="34" fill="#111827"/>
    <rect x="824" y="224" width="292" height="732" rx="26" fill="#F8FAFC"/>
    <text x="850" y="270" fill="#0F172A" font-size="28" font-weight="800" font-family="Pretendard, Apple SD Gothic Neo, sans-serif">즐겨찾기</text>
    <rect x="848" y="372" width="244" height="286" rx="20" fill="white" stroke="#E2E8F0"/>
    <rect x="866" y="396" width="208" height="60" rx="16" fill="white"/>
    <rect x="866" y="468" width="208" height="60" rx="16" fill="white"/>
    <rect x="866" y="540" width="208" height="60" rx="16" fill="white"/>
    <rect x="848" y="692" width="244" height="48" rx="18" fill="white" stroke="#CBD5E1" stroke-dasharray="6 6"/>
    <rect x="848" y="766" width="244" height="96" rx="20" fill="white"/>
    <text x="850" y="914" fill="#475569" font-size="15" font-weight="600" font-family="Pretendard, Apple SD Gothic Neo, sans-serif">집/회사 수정 + 저장 장소 관리</text>
  </g>

  <g filter="url(#shadow)">
    <rect x="1170" y="210" width="320" height="760" rx="34" fill="#111827"/>
    <rect x="1184" y="224" width="292" height="732" rx="26" fill="#F8FAFC"/>
    <text x="1210" y="270" fill="#0F172A" font-size="28" font-weight="800" font-family="Pretendard, Apple SD Gothic Neo, sans-serif">더보기</text>
    <rect x="1208" y="382" width="244" height="116" rx="20" fill="white" stroke="#E2E8F0"/>
    <rect x="1208" y="540" width="244" height="158" rx="20" fill="white" stroke="#E2E8F0"/>
    <rect x="1208" y="736" width="244" height="136" rx="20" fill="white" stroke="#E2E8F0"/>
    <rect x="1334" y="558" width="38" height="20" rx="10" fill="#2563EB"/>
    <text x="1210" y="914" fill="#475569" font-size="15" font-weight="600" font-family="Pretendard, Apple SD Gothic Neo, sans-serif">근처찾기 + 교통정보 + 설정</text>
  </g>
</svg>
